<?xml version="1.0" encoding="utf-8"?>
<!-- Generator: Adobe Illustrator 18.1.1, SVG Export Plug-In . SVG Version: 6.00 Build 0)  -->
<svg version="1.1" id="Capa_1" xmlns="http://www.w3.org/2000/svg" xmlns:xlink="http://www.w3.org/1999/xlink" x="0px" y="0px"
	 viewBox="0 0 1400 980" enable-background="new 0 0 1400 980" xml:space="preserve">
<pattern  width="25" height="28.9" patternUnits="userSpaceOnUse" id="Geometric_1" viewBox="0.3 -29.2 25 28.9" overflow="visible">
	<g>
		<polygon fill="none" points="25.3,-0.3 0.3,-0.3 0.3,-29.2 25.3,-29.2 		"/>
		<polygon fill="none" stroke="#000000" stroke-width="0.5" stroke-miterlimit="10" points="0.3,-21.9 12.8,-29.2 25.3,-21.9 
			25.3,-7.5 12.8,-0.3 0.3,-7.5 		"/>
		<polyline fill="none" stroke="#000000" stroke-width="0.5" stroke-miterlimit="10" points="0.3,-7.5 12.8,-14.7 25.3,-7.5 		"/>
		<line fill="none" stroke="#000000" stroke-width="0.5" stroke-miterlimit="10" x1="12.8" y1="-29.2" x2="12.8" y2="-14.7"/>
	</g>
</pattern>
<pattern  id="SVGID_1_" xlink:href="#Geometric_1" patternTransform="matrix(2 0 0 2 7449.75 6699.7949)">
</pattern>
<rect fill="url(#SVGID_1_)" width="1400" height="980"/>
<g>
	<linearGradient id="SVGID_2_" gradientUnits="userSpaceOnUse" x1="549.0339" y1="680.7604" x2="868.2023" y2="277.4603">
		<stop  offset="0" style="stop-color:#000000"/>
		<stop  offset="1" style="stop-color:#313131"/>
	</linearGradient>
	<circle fill="url(#SVGID_2_)" cx="700" cy="490" r="234.6"/>
</g>
<g>
	<path fill="#FFFFFF" d="M700,713.2c-123.1,0-223.2-100.1-223.2-223.2c0-123.1,100.1-223.2,223.2-223.2
		c123.1,0,223.2,100.1,223.2,223.2C923.2,613.1,823.1,713.2,700,713.2z M700,270.8c-120.9,0-219.2,98.3-219.2,219.2
		c0,120.9,98.3,219.2,219.2,219.2S919.2,610.9,919.2,490C919.2,369.1,820.9,270.8,700,270.8z"/>
</g>
<g>
	<g>
		<g>
			<path fill="#FFFFFF" d="M636.7,428.7h3l-4.8,14.2h-3.3l-4.8-14.2h3l2.7,8.4c0.1,0.5,0.3,1.1,0.5,1.7c0.2,0.7,0.3,1.1,0.3,1.4
				c0.1-0.6,0.3-1.6,0.7-3.1L636.7,428.7z"/>
			<path fill="#FFFFFF" d="M663.6,442.9h-8.2v-14.2h8.2v2.5h-5.2v3.1h4.8v2.5h-4.8v3.7h5.2V442.9z"/>
			<path fill="#FFFFFF" d="M686.4,431c-1.1,0-2,0.4-2.6,1.3c-0.6,0.9-0.9,2-0.9,3.6c0,3.2,1.2,4.7,3.6,4.7c1,0,2.2-0.3,3.6-0.7v2.5
				c-1.2,0.5-2.5,0.7-3.9,0.7c-2.1,0-3.6-0.6-4.7-1.9c-1.1-1.2-1.6-3-1.6-5.4c0-1.5,0.3-2.8,0.8-3.9c0.5-1.1,1.3-2,2.3-2.5
				c1-0.6,2.2-0.9,3.5-0.9c1.4,0,2.8,0.3,4.1,1l-1,2.4c-0.5-0.3-1.1-0.5-1.6-0.7C687.5,431.1,686.9,431,686.4,431z"/>
			<path fill="#FFFFFF" d="M712.4,442.9h-3v-11.7h-3.8v-2.5h10.7v2.5h-3.8V442.9z"/>
			<path fill="#FFFFFF" d="M745.2,435.8c0,2.3-0.6,4.1-1.7,5.4c-1.2,1.3-2.8,1.9-5,1.9c-2.2,0-3.8-0.6-5-1.9
				c-1.2-1.3-1.7-3.1-1.7-5.4s0.6-4.2,1.7-5.4c1.2-1.2,2.8-1.9,5-1.9c2.2,0,3.8,0.6,5,1.9C744.6,431.6,745.2,433.4,745.2,435.8z
				 M734.8,435.8c0,1.6,0.3,2.8,0.9,3.6c0.6,0.8,1.5,1.2,2.7,1.2c2.4,0,3.6-1.6,3.6-4.8c0-3.2-1.2-4.8-3.6-4.8
				c-1.2,0-2.1,0.4-2.7,1.2C735.1,433,734.8,434.2,734.8,435.8z"/>
			<path fill="#FFFFFF" d="M765,437.4v5.4h-3v-14.2h4.1c1.9,0,3.3,0.4,4.3,1.1c0.9,0.7,1.4,1.8,1.4,3.2c0,0.8-0.2,1.6-0.7,2.2
				c-0.5,0.6-1.1,1.2-1.9,1.5c2.1,3.2,3.5,5.2,4.2,6.2H770l-3.4-5.4H765z M765,435h1c1,0,1.7-0.2,2.1-0.5c0.5-0.3,0.7-0.8,0.7-1.5
				c0-0.7-0.2-1.1-0.7-1.4c-0.5-0.3-1.2-0.4-2.1-0.4H765V435z"/>
		</g>
	</g>
	<g>
		<g>
			<path fill="#FFFFFF" d="M565.5,539.3h3.8c1.7,0,3,0.2,3.7,0.7c0.8,0.5,1.2,1.3,1.2,2.3c0,0.7-0.2,1.3-0.5,1.8
				c-0.3,0.5-0.8,0.7-1.4,0.8v0.1c0.8,0.2,1.3,0.5,1.7,1c0.3,0.5,0.5,1.1,0.5,1.9c0,1.1-0.4,2-1.2,2.6c-0.8,0.6-1.9,0.9-3.2,0.9
				h-4.5V539.3z M568.1,544h1.5c0.7,0,1.2-0.1,1.5-0.3c0.3-0.2,0.5-0.6,0.5-1.1c0-0.5-0.2-0.8-0.5-1c-0.3-0.2-0.9-0.3-1.6-0.3h-1.3
				V544z M568.1,546.1v3.1h1.7c0.7,0,1.2-0.1,1.6-0.4c0.3-0.3,0.5-0.7,0.5-1.2c0-1-0.7-1.5-2.1-1.5H568.1z"/>
			<path fill="#FFFFFF" d="M601.2,551.3l-0.9-2.9h-4.4l-0.9,2.9h-2.8l4.3-12.1h3.1l4.3,12.1H601.2z M599.7,546.3
				c-0.8-2.6-1.3-4.1-1.4-4.4c-0.1-0.3-0.2-0.6-0.2-0.8c-0.2,0.7-0.7,2.4-1.6,5.2H599.7z"/>
			<path fill="#FFFFFF" d="M627.6,541.2c-1,0-1.7,0.4-2.2,1.1c-0.5,0.7-0.8,1.7-0.8,3c0,2.7,1,4,3,4c0.8,0,1.9-0.2,3.1-0.6v2.1
				c-1,0.4-2.1,0.6-3.3,0.6c-1.8,0-3.1-0.5-4-1.6c-0.9-1.1-1.4-2.6-1.4-4.6c0-1.3,0.2-2.4,0.7-3.3c0.5-0.9,1.1-1.7,2-2.2
				c0.9-0.5,1.9-0.8,3-0.8c1.2,0,2.4,0.3,3.5,0.9l-0.8,2.1c-0.5-0.2-0.9-0.4-1.4-0.6C628.5,541.3,628,541.2,627.6,541.2z"/>
			<path fill="#FFFFFF" d="M659.9,551.3H657l-3.2-5.1l-1.1,0.8v4.3h-2.6v-12.1h2.6v5.5l1-1.4l3.3-4.1h2.8l-4.2,5.3L659.9,551.3z"/>
			<path fill="#FFFFFF" d="M682.9,544.6h4.8v6.3c-0.8,0.3-1.5,0.4-2.2,0.5c-0.7,0.1-1.4,0.2-2.1,0.2c-1.8,0-3.2-0.5-4.2-1.6
				c-1-1.1-1.4-2.6-1.4-4.6c0-2,0.6-3.5,1.7-4.6c1.1-1.1,2.7-1.6,4.6-1.6c1.2,0,2.4,0.2,3.6,0.7l-0.9,2c-0.9-0.4-1.8-0.7-2.8-0.7
				c-1.1,0-2,0.4-2.7,1.1c-0.7,0.7-1,1.7-1,3c0,1.3,0.3,2.3,0.8,3c0.5,0.7,1.3,1,2.3,1c0.5,0,1.1-0.1,1.6-0.2v-2.5h-2.3V544.6z"/>
			<path fill="#FFFFFF" d="M710.1,546.7v4.6h-2.6v-12.1h3.5c1.6,0,2.9,0.3,3.6,0.9c0.8,0.6,1.2,1.5,1.2,2.7c0,0.7-0.2,1.3-0.6,1.9
				c-0.4,0.6-0.9,1-1.7,1.3c1.8,2.7,3,4.5,3.6,5.3h-2.8l-2.9-4.6H710.1z M710.1,544.6h0.8c0.8,0,1.4-0.1,1.8-0.4
				c0.4-0.3,0.6-0.7,0.6-1.3c0-0.6-0.2-1-0.6-1.2c-0.4-0.2-1-0.4-1.8-0.4h-0.8V544.6z"/>
			<path fill="#FFFFFF" d="M746.6,545.3c0,2-0.5,3.5-1.5,4.6c-1,1.1-2.4,1.6-4.3,1.6c-1.9,0-3.3-0.5-4.3-1.6c-1-1.1-1.5-2.6-1.5-4.6
				c0-2,0.5-3.5,1.5-4.6c1-1.1,2.4-1.6,4.3-1.6c1.9,0,3.3,0.5,4.3,1.6C746.1,541.7,746.6,543.3,746.6,545.3z M737.8,545.3
				c0,1.3,0.3,2.4,0.8,3c0.5,0.7,1.3,1,2.3,1c2,0,3.1-1.4,3.1-4.1c0-2.7-1-4.1-3.1-4.1c-1,0-1.8,0.3-2.3,1
				C738,542.9,737.8,543.9,737.8,545.3z"/>
			<path fill="#FFFFFF" d="M775.9,539.3v7.8c0,0.9-0.2,1.7-0.6,2.3c-0.4,0.7-1,1.2-1.7,1.5c-0.8,0.4-1.6,0.5-2.7,0.5
				c-1.6,0-2.8-0.4-3.6-1.2c-0.9-0.8-1.3-1.9-1.3-3.3v-7.8h2.6v7.4c0,0.9,0.2,1.6,0.6,2c0.4,0.4,1,0.7,1.9,0.7
				c0.8,0,1.4-0.2,1.8-0.7c0.4-0.4,0.6-1.1,0.6-2.1v-7.4H775.9z"/>
			<path fill="#FFFFFF" d="M806.5,551.3h-3.3l-5.3-9.1h-0.1c0.1,1.6,0.2,2.8,0.2,3.5v5.7h-2.3v-12.1h3.2l5.2,9.1h0.1
				c-0.1-1.6-0.1-2.7-0.1-3.3v-5.7h2.3V551.3z"/>
			<path fill="#FFFFFF" d="M836.5,545.2c0,2-0.6,3.5-1.7,4.6c-1.1,1.1-2.8,1.6-4.9,1.6h-3.4v-12.1h3.8c2,0,3.5,0.5,4.6,1.6
				C835.9,541.9,836.5,543.3,836.5,545.2z M833.8,545.3c0-2.6-1.1-3.9-3.4-3.9H829v7.9h1.1C832.6,549.2,833.8,547.9,833.8,545.3z"/>
		</g>
	</g>
	<rect x="785.1" y="434.3" fill="#FFFFFF" width="76" height="2.1"/>
	<rect x="538.9" y="434.3" fill="#FFFFFF" width="76" height="2.1"/>
</g>
<g>
	<path fill="#FFFFFF" d="M547.6,513.1H541l-1.1-8.4h-8l-1.1,8.4h-6l6.7-46.1h9.6L547.6,513.1z M532.7,498.4h6.3l-3.2-23.3
		L532.7,498.4z"/>
	<path fill="#FFFFFF" d="M570.3,477.6v1.6c0,4.7-1.3,7.8-4.2,9.3c3.5,1.5,4.9,5,4.9,9.9v3.8c0,7.1-3.4,10.9-10,10.9h-10.3v-46.1h9.9
		C567.4,466.9,570.3,470.4,570.3,477.6z M557.2,473.5v12.2h2.6c2.4,0,3.9-1.2,3.9-4.9v-2.6c0-3.3-1-4.7-3.3-4.7H557.2z M557.2,492.3
		v14.2h3.8c2.2,0,3.4-1.1,3.4-4.5v-4c0-4.3-1.3-5.6-4.2-5.6H557.2z"/>
	<path fill="#FFFFFF" d="M583.7,466.4c6.4,0,9.7,4.2,9.7,11.6v1.4h-6.2v-1.9c0-3.3-1.2-4.5-3.3-4.5s-3.3,1.3-3.3,4.5
		c0,9.5,12.8,11.3,12.8,24.4c0,7.4-3.3,11.6-9.8,11.6c-6.4,0-9.8-4.2-9.8-11.6v-2.8h6.2v3.3c0,3.3,1.3,4.5,3.4,4.5
		c2.1,0,3.4-1.2,3.4-4.5c0-9.5-12.8-11.3-12.8-24.4C574,470.6,577.3,466.4,583.7,466.4z"/>
	<path fill="#FFFFFF" d="M595.2,466.9h20.3v6.6h-6.9v39.5h-6.6v-39.5h-6.9V466.9z"/>
	<path fill="#FFFFFF" d="M632.1,513.1c-0.4-1.2-0.6-1.9-0.6-5.7v-7.2c0-4.3-1.3-5.9-4.3-5.9h-2.3v18.8h-6.6v-46.1h9.9
		c6.8,0,9.7,3.5,9.7,10.6v3.6c0,4.7-1.4,7.8-4.3,9.4c3.3,1.5,4.4,5,4.4,9.8v7.1c0,2.2,0.1,3.9,0.7,5.6H632.1z M624.9,473.5v14.2h2.6
		c2.4,0,3.9-1.2,3.9-4.9v-4.5c0-3.3-1-4.7-3.3-4.7H624.9z"/>
	<path fill="#FFFFFF" d="M663.5,513.1h-6.6l-1.1-8.4h-8l-1.1,8.4h-6l6.7-46.1h9.6L663.5,513.1z M648.6,498.4h6.3l-3.2-23.3
		L648.6,498.4z"/>
	<path fill="#FFFFFF" d="M685.6,495.9v6.1c0,7.4-3.3,11.6-9.8,11.6s-9.8-4.2-9.8-11.6v-24c0-7.4,3.3-11.6,9.8-11.6s9.8,4.2,9.8,11.6
		v4.5h-6.2v-4.9c0-3.3-1.3-4.5-3.4-4.5c-2.1,0-3.4,1.3-3.4,4.5v24.9c0,3.3,1.3,4.5,3.4,4.5c2.1,0,3.4-1.2,3.4-4.5v-6.6H685.6z"/>
	<path fill="#FFFFFF" d="M687.7,466.9h20.3v6.6h-6.9v39.5h-6.6v-39.5h-6.9V466.9z"/>
	<path fill="#FFFFFF" d="M739.4,478.3v6c0,7.4-3.2,11.4-9.8,11.4h-3.1v17.3H720v-46.1h9.7C736.2,466.9,739.4,471,739.4,478.3z
		 M726.6,473.5v15.6h3.1c2.1,0,3.2-1.1,3.2-4.3v-6.9c0-3.3-1.1-4.3-3.2-4.3H726.6z"/>
	<path fill="#FFFFFF" d="M763.2,513.1h-6.6l-1.1-8.4h-8l-1.1,8.4h-6l6.7-46.1h9.6L763.2,513.1z M748.3,498.4h6.3l-3.2-23.3
		L748.3,498.4z"/>
	<path fill="#FFFFFF" d="M764.4,466.9h20.3v6.6h-6.9v39.5h-6.6v-39.5h-6.9V466.9z"/>
	<path fill="#FFFFFF" d="M785.6,466.9h20.3v6.6H799v39.5h-6.6v-39.5h-6.9V466.9z"/>
	<path fill="#FFFFFF" d="M815.2,486.4h9v6.6h-9v13.5h11.3v6.6h-17.9v-46.1h17.9v6.6h-11.3V486.4z"/>
	<path fill="#FFFFFF" d="M844.3,513.1c-0.4-1.2-0.6-1.9-0.6-5.7v-7.2c0-4.3-1.3-5.9-4.3-5.9h-2.3v18.8h-6.6v-46.1h9.9
		c6.8,0,9.7,3.5,9.7,10.6v3.6c0,4.7-1.4,7.8-4.3,9.4c3.3,1.5,4.3,5,4.3,9.8v7.1c0,2.2,0.1,3.9,0.7,5.6H844.3z M837.2,473.5v14.2h2.6
		c2.4,0,3.9-1.2,3.9-4.9v-4.5c0-3.3-1-4.7-3.3-4.7H837.2z"/>
	<path fill="#FFFFFF" d="M860.4,479.7v33.4h-5.9v-46.1h8.2l6.7,27.6v-27.6h5.8v46.1h-6.7L860.4,479.7z"/>
</g>
<g>
	<g>
		<g>
			<path fill="#FFFFFF" d="M717.4,620.1c0.5,0,0.9,0.4,0.9,0.4l-7.5,16c-0.8,0-2.8,0.1-3.3,0.1c-0.5,0-0.9-0.4-0.9-0.4l-2.6-16
				c1.6,0,3.5-0.1,4.1-0.1c0.5,0,0.9,0.4,0.9,0.4l0.8,7.8c0.1,0.7,0.1,1.6,0,2.6c0.3-1.1,0.5-2.1,0.8-2.8l3.1-7.9
				C715.1,620.2,716.8,620.1,717.4,620.1L717.4,620.1z"/>
		</g>
		<g>
			<path fill="#FFFFFF" d="M725.1,628c0,1.7-1,2.9-3.4,3.4l-2.5,0.5c0.2,1.1,0.9,1.6,2,1.6c1.4,0,2.3-1.1,2.3-1.1s0.7,0.4,0.7,1.2
				c0,1.5-2.2,3-4.8,3c-2.6,0-4.4-1.7-4.4-4.5c0-3.2,2.3-7.6,6.4-7.6C723.7,624.7,725.1,626,725.1,628L725.1,628z M720.8,629.7
				c0.5-0.2,0.7-0.6,0.7-1.1c0-0.5-0.2-1.2-0.7-1.2c-1,0-1.5,1.6-1.6,2.9L720.8,629.7z"/>
		</g>
		<g>
			<path fill="#FFFFFF" d="M732,624.7c2.1,0,3.6,1.1,3.6,2.5c0,1.8-2.2,2.4-2.2,2.4s-0.6-1.9-2.1-1.9c-1,0-1.5,1-1.5,3.1
				c0,1.9,0.5,2.8,1.8,2.8c1.3,0,2.1-0.9,2.1-0.9s0.7,0.4,0.7,1.2c0,1.4-2.1,2.9-4.6,2.9c-2.7,0-4.3-1.7-4.3-4.4
				C725.5,629.1,727.8,624.7,732,624.7L732,624.7z"/>
		</g>
		<g>
			<path fill="#FFFFFF" d="M741.9,622.1c0.5,0,0.8,0.4,0.8,0.4l-0.4,2.4h2.6l-0.6,1.9c-0.2,0.6-0.5,0.9-1.1,0.9h-1.4l-0.8,4.8
				c-0.1,0.8,0,1.1,0.6,1.1c0.5,0,0.9-0.3,0.9-0.3s0.7,0.4,0.7,1.2c0,1.2-1.7,2.3-3.8,2.3c-2.2,0-3.1-1.4-2.8-3.8l0.8-5.3h-1.4
				l0.6-1.9c0.2-0.5,0.6-0.9,1.1-0.9h0.7l0.8-2.3C740.5,622.4,741.4,622.1,741.9,622.1L741.9,622.1z"/>
		</g>
		<g>
			<path fill="#FFFFFF" d="M754.5,628c0,1.7-1,2.9-3.4,3.4l-2.5,0.5c0.2,1.1,0.9,1.6,2,1.6c1.4,0,2.3-1.1,2.3-1.1s0.7,0.4,0.7,1.2
				c0,1.5-2.2,3-4.8,3c-2.6,0-4.4-1.7-4.4-4.5c0-3.2,2.3-7.6,6.4-7.6C753.1,624.7,754.5,626,754.5,628L754.5,628z M750.2,629.7
				c0.5-0.2,0.7-0.6,0.7-1.1c0-0.5-0.2-1.2-0.7-1.2c-1,0-1.5,1.6-1.6,2.9L750.2,629.7z"/>
		</g>
		<g>
			<path fill="#FFFFFF" d="M764.9,628c0,1.7-1,2.9-3.4,3.4l-2.5,0.5c0.2,1.1,0.9,1.6,2,1.6c1.4,0,2.3-1.1,2.3-1.1s0.7,0.4,0.7,1.2
				c0,1.5-2.2,3-4.8,3c-2.6,0-4.4-1.7-4.4-4.5c0-3.2,2.3-7.6,6.4-7.6C763.5,624.7,764.9,626,764.9,628L764.9,628z M760.6,629.7
				c0.5-0.2,0.7-0.6,0.7-1.1c0-0.5-0.2-1.2-0.7-1.2c-1,0-1.5,1.6-1.6,2.9L760.6,629.7z"/>
		</g>
		<g>
			<path fill="#FFFFFF" d="M773.4,632.4c0,0,0.9,0.8,0.9,2.1c0,1.8-1.5,2.3-2.8,2.3c-1.7,0-2.9-0.8-4.1-1.2c-0.3,0.4-0.7,0.8-1,1.2
				c0,0-1.9,0-1.9-1.3c0-1.5,2.6-4.2,5.4-7.2c-0.3-0.1-0.6-0.1-0.9-0.1c-1.6,0-2.2,0.8-2.2,0.8s-0.8-0.9-0.7-2.1
				c0.1-1.7,1.7-2.1,3-2.1c1.3,0,2.3,0.5,3.3,0.9l0.8-0.9c0,0,1.9,0.1,1.9,1.3c0,1.5-2.5,4.1-5.2,7c0.6,0.2,1.1,0.3,1.6,0.3
				C772.7,633.3,773.4,632.4,773.4,632.4L773.4,632.4z"/>
		</g>
		<g>
			<path fill="#FFFFFF" d="M785.5,635.8c-0.7,4.1-3.5,6.2-7,6.2c-2.3,0-3.9-1.2-3.9-2.6c0-0.9,0.8-1.3,0.8-1.3s0.8,0.7,2.3,0.7
				c1.4,0,3.3-0.6,3.7-2.8l0.3-1.7c-1,1.4-2.2,2.5-3.8,2.5c-1.8,0-2.6-1.5-2.1-4.5l0.5-3.2c0.3-2,0.4-3.6,0.4-3.6
				c1.3-0.2,3-0.8,3.6-0.8c0.5,0,0.9,0.4,0.9,0.4l-0.6,4l-0.6,3.7c-0.1,0.3,0,0.5,0.3,0.5c1.5,0,2.3-4.3,2.3-4.3
				c0.3-2,0.4-3.6,0.4-3.6c1.3-0.2,3-0.8,3.6-0.8c0.5,0,0.9,0.4,0.9,0.4l-0.6,4L785.5,635.8z"/>
		</g>
	</g>
	<g>
		<path fill="#FFFFFF" d="M612.8,625.3h4c0.9,0,1.6,0.1,2.1,0.2c0.6,0.2,1.2,0.5,1.6,1c0.5,0.5,0.8,1.1,1,1.8
			c0.2,0.7,0.4,1.6,0.4,2.6c0,0.9-0.1,1.7-0.3,2.3c-0.3,0.8-0.7,1.4-1.2,1.9c-0.4,0.4-0.9,0.7-1.5,0.9c-0.5,0.2-1.1,0.2-1.9,0.2
			h-4.1V625.3z M615,627.2v7.2h1.6c0.6,0,1.1,0,1.3-0.1c0.4-0.1,0.7-0.2,0.9-0.5c0.2-0.2,0.4-0.6,0.6-1c0.1-0.5,0.2-1.1,0.2-2
			c0-0.8-0.1-1.5-0.2-1.9s-0.4-0.8-0.6-1.1c-0.3-0.3-0.6-0.4-1-0.5c-0.3-0.1-0.9-0.1-1.8-0.1H615z"/>
		<path fill="#FFFFFF" d="M628,633.7l2.1,0.3c-0.3,0.8-0.7,1.3-1.3,1.7c-0.6,0.4-1.3,0.6-2.2,0.6c-1.4,0-2.4-0.4-3-1.3
			c-0.5-0.7-0.8-1.6-0.8-2.7c0-1.3,0.3-2.3,1-3.1c0.7-0.7,1.5-1.1,2.6-1.1c1.2,0,2.1,0.4,2.8,1.2c0.7,0.8,1,2,1,3.6H625
			c0,0.6,0.2,1.1,0.5,1.4c0.3,0.3,0.7,0.5,1.2,0.5c0.3,0,0.6-0.1,0.8-0.3C627.8,634.4,627.9,634.1,628,633.7z M628.2,631.6
			c0-0.6-0.2-1.1-0.5-1.4c-0.3-0.3-0.7-0.5-1.1-0.5c-0.5,0-0.8,0.2-1.1,0.5c-0.3,0.3-0.4,0.8-0.4,1.3H628.2z"/>
		<path fill="#FFFFFF" d="M630.9,633.9l2.1-0.3c0.1,0.4,0.3,0.7,0.5,0.9c0.3,0.2,0.7,0.3,1.1,0.3c0.5,0,0.9-0.1,1.2-0.3
			c0.2-0.1,0.3-0.3,0.3-0.6c0-0.2,0-0.3-0.1-0.4c-0.1-0.1-0.3-0.2-0.7-0.3c-1.7-0.4-2.7-0.7-3.2-1c-0.6-0.4-0.9-1-0.9-1.8
			c0-0.7,0.3-1.3,0.8-1.7c0.5-0.5,1.4-0.7,2.5-0.7c1.1,0,1.9,0.2,2.4,0.5c0.5,0.4,0.9,0.9,1.1,1.6l-2,0.4c-0.1-0.3-0.2-0.5-0.5-0.7
			c-0.2-0.2-0.6-0.2-1-0.2c-0.5,0-0.9,0.1-1.2,0.2c-0.2,0.1-0.2,0.2-0.2,0.4c0,0.1,0.1,0.3,0.2,0.4c0.2,0.1,0.8,0.3,1.9,0.6
			c1.1,0.3,1.9,0.6,2.3,0.9c0.4,0.4,0.7,0.9,0.7,1.5c0,0.7-0.3,1.3-0.9,1.9c-0.6,0.5-1.5,0.8-2.7,0.8c-1.1,0-1.9-0.2-2.5-0.7
			C631.5,635.3,631.1,634.7,630.9,633.9z"/>
		<path fill="#FFFFFF" d="M639.8,627.2v-1.9h2.1v1.9H639.8z M639.8,636.2v-7.9h2.1v7.9H639.8z"/>
		<path fill="#FFFFFF" d="M643.5,636.7l2.4,0.3c0,0.3,0.1,0.5,0.3,0.6c0.2,0.1,0.5,0.2,0.9,0.2c0.5,0,1-0.1,1.2-0.2
			c0.2-0.1,0.3-0.3,0.4-0.5c0.1-0.2,0.1-0.5,0.1-1v-1.1c-0.6,0.8-1.4,1.3-2.4,1.3c-1.1,0-1.9-0.4-2.5-1.3c-0.5-0.7-0.7-1.6-0.7-2.6
			c0-1.3,0.3-2.3,1-3c0.6-0.7,1.4-1,2.4-1c1,0,1.8,0.4,2.4,1.3v-1.1h1.9v7.1c0,0.9-0.1,1.6-0.2,2.1c-0.2,0.5-0.4,0.8-0.6,1.1
			c-0.3,0.3-0.6,0.5-1.1,0.6c-0.5,0.1-1,0.2-1.8,0.2c-1.3,0-2.3-0.2-2.8-0.7c-0.6-0.5-0.8-1-0.8-1.7
			C643.5,636.9,643.5,636.8,643.5,636.7z M645.3,632.1c0,0.8,0.2,1.4,0.5,1.8c0.3,0.4,0.7,0.6,1.2,0.6c0.5,0,0.9-0.2,1.3-0.6
			c0.4-0.4,0.5-1,0.5-1.8c0-0.8-0.2-1.4-0.5-1.8c-0.3-0.4-0.8-0.6-1.3-0.6c-0.5,0-0.9,0.2-1.2,0.6S645.3,631.3,645.3,632.1z"/>
		<path fill="#FFFFFF" d="M659.8,636.2h-2.1v-4c0-0.8,0-1.4-0.1-1.6c-0.1-0.2-0.2-0.4-0.4-0.6c-0.2-0.1-0.4-0.2-0.7-0.2
			c-0.4,0-0.7,0.1-1,0.3c-0.3,0.2-0.5,0.5-0.6,0.8s-0.2,0.9-0.2,1.8v3.6h-2.1v-7.9h1.9v1.2c0.7-0.9,1.6-1.3,2.6-1.3
			c0.5,0,0.9,0.1,1.3,0.2c0.4,0.2,0.7,0.4,0.9,0.6c0.2,0.3,0.3,0.5,0.4,0.9c0.1,0.3,0.1,0.8,0.1,1.4V636.2z"/>
		<path fill="#FFFFFF" d="M666.2,633.7l2.1,0.3c-0.3,0.8-0.7,1.3-1.3,1.7c-0.6,0.4-1.3,0.6-2.2,0.6c-1.4,0-2.4-0.4-3-1.3
			c-0.5-0.7-0.8-1.6-0.8-2.7c0-1.3,0.3-2.3,1-3.1s1.5-1.1,2.6-1.1c1.2,0,2.1,0.4,2.8,1.2c0.7,0.8,1,2,1,3.6h-5.2
			c0,0.6,0.2,1.1,0.5,1.4c0.3,0.3,0.7,0.5,1.2,0.5c0.3,0,0.6-0.1,0.8-0.3C665.9,634.4,666,634.1,666.2,633.7z M666.3,631.6
			c0-0.6-0.2-1.1-0.5-1.4c-0.3-0.3-0.7-0.5-1.1-0.5c-0.5,0-0.8,0.2-1.1,0.5c-0.3,0.3-0.4,0.8-0.4,1.3H666.3z"/>
		<path fill="#FFFFFF" d="M677,636.2H675V635c-0.3,0.4-0.7,0.8-1.1,1c-0.4,0.2-0.9,0.3-1.3,0.3c-0.9,0-1.7-0.4-2.3-1.1
			c-0.6-0.7-1-1.7-1-3c0-1.3,0.3-2.3,0.9-3c0.6-0.7,1.4-1,2.4-1c0.9,0,1.6,0.4,2.3,1.1v-3.9h2.1V636.2z M671.4,632.1
			c0,0.8,0.1,1.4,0.3,1.8c0.3,0.5,0.8,0.8,1.4,0.8c0.5,0,0.9-0.2,1.2-0.6c0.3-0.4,0.5-1,0.5-1.8c0-0.9-0.2-1.6-0.5-2
			c-0.3-0.4-0.7-0.6-1.3-0.6c-0.5,0-0.9,0.2-1.2,0.6C671.6,630.7,671.4,631.3,671.4,632.1z"/>
		<path fill="#FFFFFF" d="M682.5,636.2v-10.9h2.1v3.9c0.6-0.7,1.4-1.1,2.3-1.1c1,0,1.8,0.3,2.4,1c0.6,0.7,0.9,1.7,0.9,3
			c0,1.3-0.3,2.4-1,3.1c-0.6,0.7-1.4,1.1-2.3,1.1c-0.4,0-0.9-0.1-1.3-0.3c-0.4-0.2-0.8-0.6-1.1-1v1.2H682.5z M684.6,632.1
			c0,0.8,0.1,1.4,0.4,1.8c0.4,0.6,0.8,0.8,1.4,0.8c0.5,0,0.9-0.2,1.2-0.6c0.3-0.4,0.5-1,0.5-1.9c0-0.9-0.2-1.5-0.5-1.9
			s-0.7-0.6-1.3-0.6c-0.5,0-0.9,0.2-1.2,0.6S684.6,631.3,684.6,632.1z"/>
		<path fill="#FFFFFF" d="M690.6,628.3h2.2l1.9,5.6l1.8-5.6h2.2l-2.8,7.6l-0.5,1.4c-0.2,0.5-0.4,0.8-0.5,1.1s-0.4,0.4-0.6,0.6
			c-0.2,0.2-0.5,0.3-0.8,0.4c-0.3,0.1-0.7,0.1-1.1,0.1c-0.4,0-0.8,0-1.2-0.1l-0.2-1.6c0.3,0.1,0.6,0.1,0.9,0.1
			c0.5,0,0.8-0.1,1.1-0.4c0.2-0.3,0.4-0.6,0.5-1.1L690.6,628.3z"/>
	</g>
</g>
</svg>
